<?xml version="1.0" encoding="UTF-8" standalone="no"?>
<svg
   id="svg"
   version="1.1"
   width="115.24662mm"
   height="115.24662mm"
   viewBox="0 0 435.57779 435.57779"
   sodipodi:docname="favicon-new.svg"
   inkscape:version="1.4 (e7c3feb100, 2024-10-09)"
   xmlns:inkscape="http://www.inkscape.org/namespaces/inkscape"
   xmlns:sodipodi="http://sodipodi.sourceforge.net/DTD/sodipodi-0.dtd"
   xmlns="http://www.w3.org/2000/svg"
   xmlns:svg="http://www.w3.org/2000/svg"
   xmlns:rdf="http://www.w3.org/1999/02/22-rdf-syntax-ns#"
   xmlns:cc="http://creativecommons.org/ns#"
   xmlns:dc="http://purl.org/dc/elements/1.1/">
  <metadata
     id="metadata10">
    <rdf:RDF>
      <cc:Work
         rdf:about="">
        <dc:format>image/svg+xml</dc:format>
        <dc:type
           rdf:resource="http://purl.org/dc/dcmitype/StillImage" />
      </cc:Work>
    </rdf:RDF>
  </metadata>
  <defs
     id="defs8" />
  <sodipodi:namedview
     pagecolor="#ffffff"
     bordercolor="#666666"
     borderopacity="1"
     objecttolerance="10"
     gridtolerance="10"
     guidetolerance="10"
     inkscape:pageopacity="0"
     inkscape:pageshadow="2"
     inkscape:window-width="1920"
     inkscape:window-height="1011"
     id="namedview6"
     showgrid="false"
     inkscape:zoom="1"
     inkscape:cx="322.5"
     inkscape:cy="197"
     inkscape:window-x="0"
     inkscape:window-y="0"
     inkscape:window-maximized="1"
     inkscape:current-layer="layer2"
     units="mm"
     fit-margin-top="0"
     fit-margin-left="0"
     fit-margin-right="0"
     fit-margin-bottom="0"
     inkscape:showpageshadow="2"
     inkscape:pagecheckerboard="0"
     inkscape:deskcolor="#d1d1d1"
     inkscape:document-units="mm" />
  <g
     inkscape:groupmode="layer"
     id="layer1"
     inkscape:label="Layer 1"
     transform="translate(713.84382,-92.948322)">
    <circle
       transform="matrix(1.4297696,0,0,1.4297696,-770.05162,-42.88531)"
       style="fill:#0d0f2e;fill-opacity:1;stroke-width:0.69941342"
       id="path11"
       cx="191.63695"
       cy="247.32832"
       r="152.32446" />
  </g>
  <g
     inkscape:groupmode="layer"
     id="layer2"
     inkscape:label="Layer 2"
     transform="translate(713.84382,-92.948322)">
    <g
       transform="matrix(1.940052,0,0,1.940052,-852.59944,-55.399238)"
       id="svgg">
      <path
         style="fill:#04e404;fill-rule:evenodd;stroke:none;stroke-width:1"
         inkscape:connector-curvature="0"
         id="path1"
         d="m 150.16991,116.56712 c -11.071,0.709 -17.633,3.648 -20.299,9.093 -2.378,4.857 -2.795,8.548 -3.004,26.567 -0.173,14.906 -0.185,15.055 -1.474,18.997 -2.571,7.863 -8.269,11.116 -20.02,11.429 l -4.735,0.126 v 6.811 6.812 l 6.504,0.102 c 12.245,0.191 16.248,2.859 18.814,12.539 l 0.773,2.91399 0.145,13.00701 c 0.08,7.154 0.255,14.131 0.389,15.505 1.641,16.787 7.858,20.49099 34.406,20.497 l 9.313,0.002 v -16.614 -16.615 l -2.192,-1.63001 c -8.082,-6.01109 -12.619,-16.83209 -13.646,-32.54709 -1.229,-18.814 4.359,-35.586 14.222,-42.687 l 1.59,-1.145 0.013,-16.701 0.013,-16.702 -9.001,0.03 c -4.95102,0.017 -10.26602,0.111 -11.81102,0.21 m 47.243,16.336 v 16.628 l 0.744,0.401 c 1.068,0.575 2.782,2.509 3.61,4.073 0.391,0.739 1.155,2.055 1.698,2.924 6.791,10.887 9.033,33.442 5.073,51.043 -1.671,7.426 -6.455,16.412 -9.986,18.756 l -1.139,0.756 v 16.846 16.84599 l 5.775,-0.002 c 23.519,-0.008 31.523,-3.164 35.189,-13.876 1.829,-5.342 1.944,-6.595 2.118,-23.062 0.197,-18.55 0.481,-20.377 3.663,-23.51 3.172,-3.123 6.125,-3.861 16.054,-4.01 l 6.712,-0.102 v -6.826 -6.826 l -5.047,-0.1 c -9.667,-0.192 -14.727,-1.54099 -18.295,-4.87799 -1.34299,-1.257 -1.674,-1.931 -2.489,-5.073 l -0.668,-2.577 -0.02,-14.985 c -0.017,-13.1799 -0.064,-15.2799 -0.38599,-17.4399 -2.53501,-16.96 -9.23401,-21.172 -34.23001,-21.518 l -8.376,-0.117 v 16.629" />
      <path
         d="m 150.16991,116.56712 c -11.071,0.709 -17.633,3.648 -20.299,9.093 -2.378,4.857 -2.795,8.548 -3.004,26.567 -0.173,14.906 -0.185,15.055 -1.474,18.997 -2.571,7.863 -8.269,11.116 -20.02,11.429 l -4.735,0.126 v 6.811 6.812 l 6.504,0.102 c 12.245,0.191 16.248,2.859 18.814,12.539 l 0.773,2.91399 0.145,13.00701 c 0.08,7.154 0.255,14.131 0.389,15.505 1.641,16.787 7.858,20.49099 34.406,20.497 l 9.313,0.002 v -16.614 -16.615 l -2.192,-1.63001 c -8.082,-6.01109 -12.619,-16.83209 -13.646,-32.54709 -1.229,-18.814 4.359,-35.586 14.222,-42.687 l 1.59,-1.145 0.013,-16.701 0.013,-16.702 -9.001,0.03 c -4.95102,0.017 -10.26602,0.111 -11.81102,0.21 m 47.243,16.336 v 16.628 l 0.744,0.401 c 1.068,0.575 2.782,2.509 3.61,4.073 0.391,0.739 1.155,2.055 1.698,2.924 6.791,10.887 9.033,33.442 5.073,51.043 -1.671,7.426 -6.455,16.412 -9.986,18.756 l -1.139,0.756 v 16.846 16.84599 l 5.775,-0.002 c 23.519,-0.008 31.523,-3.164 35.189,-13.876 1.829,-5.342 1.944,-6.595 2.118,-23.062 0.197,-18.55 0.481,-20.377 3.663,-23.51 3.172,-3.123 6.125,-3.861 16.054,-4.01 l 6.712,-0.102 v -6.826 -6.826 l -5.047,-0.1 c -9.667,-0.192 -14.727,-1.54099 -18.295,-4.87799 -1.34299,-1.257 -1.674,-1.931 -2.489,-5.073 l -0.668,-2.577 -0.02,-14.985 c -0.017,-13.1799 -0.064,-15.2799 -0.38599,-17.4399 -2.53501,-16.96 -9.23401,-21.172 -34.23001,-21.518 l -8.376,-0.117 v 16.629"
         id="path27"
         inkscape:connector-curvature="0"
         style="fill:#04e404;fill-rule:evenodd;stroke:none;stroke-width:1" />
    </g>
    <rect
       style="fill:#3771c8;stroke-width:1.80446;stroke-linecap:round;stroke-linejoin:round"
       id="rect1"
       width="366"
       height="153"
       x="-643.84381"
       y="349.94833" />
    <text
       xml:space="preserve"
       style="font-size:133.333px;font-family:Montserrat;-inkscape-font-specification:Montserrat;text-align:start;writing-mode:lr-tb;direction:ltr;text-anchor:start;fill:#3771c8;stroke-width:1.00157;stroke-linecap:round;stroke-linejoin:round"
       x="-632.84381"
       y="475.94833"
       id="text1"><tspan
         sodipodi:role="line"
         id="tspan1"
         x="-632.84381"
         y="475.94833"
         style="font-style:normal;font-variant:normal;font-weight:bold;font-stretch:normal;font-size:133.333px;font-family:Montserrat;-inkscape-font-specification:'Montserrat Bold';fill:#ffffff">NEW</tspan></text>
  </g>
</svg>
