<svg width="13008" height="5903" viewBox="0 0 13008 5903" fill="none" xmlns="http://www.w3.org/2000/svg">
<rect x="3586.38" y="4964.19" width="5857.81" height="931.812" rx="195.866" fill="#1F1F1F"/>
<rect x="3586.38" y="4964.19" width="5857.81" height="931.812" rx="195.866" stroke="#1A1A1A" stroke-width="13.508"/>
<path d="M3970.54 5428.15C3980.63 5429.95 3989.18 5435.27 3996.21 5444.09C4003.23 5452.92 4006.74 5462.91 4006.74 5474.08C4006.74 5483.63 4004.22 5492.27 3999.18 5500.02C3994.32 5507.58 3987.2 5513.61 3977.84 5518.12C3968.47 5522.44 3957.58 5524.6 3945.15 5524.6H3870.04V5336.84H3941.64C3954.42 5336.84 3965.41 5339 3974.6 5343.32C3983.78 5347.64 3990.71 5353.5 3995.4 5360.88C4000.08 5368.09 4002.42 5376.19 4002.42 5385.2C4002.42 5396 3999.54 5405.01 3993.78 5412.21C3988.01 5419.42 3980.27 5424.73 3970.54 5428.15ZM3900.84 5415.73H3938.93C3949.02 5415.73 3956.85 5413.47 3962.44 5408.97C3968.2 5404.29 3971.08 5397.62 3971.08 5388.98C3971.08 5380.51 3968.2 5373.94 3962.44 5369.26C3956.85 5364.39 3949.02 5361.96 3938.93 5361.96H3900.84V5415.73ZM3942.45 5499.47C3952.89 5499.47 3961.09 5496.95 3967.03 5491.91C3972.97 5486.87 3975.95 5479.84 3975.95 5470.84C3975.95 5461.65 3972.79 5454.36 3966.49 5448.95C3960.19 5443.55 3951.81 5440.85 3941.37 5440.85H3900.84V5499.47H3942.45ZM4175.02 5375.74V5524.6H4144.22V5507.04C4139.36 5513.16 4132.97 5518.03 4125.04 5521.63C4117.3 5525.05 4109.01 5526.76 4100.19 5526.76C4088.48 5526.76 4077.94 5524.33 4068.58 5519.47C4059.39 5514.6 4052.1 5507.4 4046.7 5497.85C4041.47 5488.31 4038.86 5476.78 4038.86 5463.27V5375.74H4069.39V5458.68C4069.39 5472.01 4072.72 5482.27 4079.39 5489.48C4086.05 5496.5 4095.15 5500.02 4106.67 5500.02C4118.2 5500.02 4127.29 5496.5 4133.96 5489.48C4140.8 5482.27 4144.22 5472.01 4144.22 5458.68V5375.74H4175.02ZM4231.33 5356.02C4225.74 5356.02 4221.06 5354.13 4217.28 5350.35C4213.5 5346.56 4211.61 5341.88 4211.61 5336.3C4211.61 5330.71 4213.5 5326.03 4217.28 5322.25C4221.06 5318.47 4225.74 5316.58 4231.33 5316.58C4236.73 5316.58 4241.32 5318.47 4245.11 5322.25C4248.89 5326.03 4250.78 5330.71 4250.78 5336.3C4250.78 5341.88 4248.89 5346.56 4245.11 5350.35C4241.32 5354.13 4236.73 5356.02 4231.33 5356.02ZM4246.46 5375.74V5524.6H4215.66V5375.74H4246.46ZM4317.69 5324.68V5524.6H4286.89V5324.68H4317.69ZM4347.86 5449.5C4347.86 5434.55 4350.92 5421.31 4357.05 5409.78C4363.35 5398.25 4371.81 5389.34 4382.44 5383.04C4393.25 5376.55 4405.22 5373.31 4418.37 5373.31C4428.1 5373.31 4437.64 5375.47 4447.01 5379.79C4456.55 5383.94 4464.12 5389.52 4469.7 5396.54V5324.68H4500.77V5524.6H4469.7V5502.18C4464.66 5509.38 4457.63 5515.32 4448.63 5520.01C4439.8 5524.69 4429.63 5527.03 4418.1 5527.03C4405.13 5527.03 4393.25 5523.79 4382.44 5517.31C4371.81 5510.64 4363.35 5501.46 4357.05 5489.75C4350.92 5477.86 4347.86 5464.44 4347.86 5449.5ZM4469.7 5450.04C4469.7 5439.77 4467.54 5430.85 4463.22 5423.29C4459.08 5415.73 4453.58 5409.96 4446.74 5406C4439.89 5402.04 4432.51 5400.06 4424.59 5400.06C4416.66 5400.06 4409.28 5402.04 4402.43 5406C4395.59 5409.78 4390 5415.45 4385.68 5423.02C4381.54 5430.4 4379.47 5439.23 4379.47 5449.5C4379.47 5459.76 4381.54 5468.77 4385.68 5476.51C4390 5484.26 4395.59 5490.2 4402.43 5494.34C4409.46 5498.3 4416.84 5500.29 4424.59 5500.29C4432.51 5500.29 4439.89 5498.3 4446.74 5494.34C4453.58 5490.38 4459.08 5484.62 4463.22 5477.05C4467.54 5469.31 4469.7 5460.3 4469.7 5450.04ZM5866.7 5487.59L5834.01 5562.15H5814.01L5833.2 5487.59H5866.7ZM5953.52 5449.5C5953.52 5434.55 5956.58 5421.31 5962.7 5409.78C5969.01 5398.25 5977.47 5389.34 5988.1 5383.04C5998.91 5376.55 6010.79 5373.31 6023.76 5373.31C6035.47 5373.31 6045.64 5375.65 6054.29 5380.33C6063.11 5384.84 6070.14 5390.51 6075.36 5397.35V5375.74H6106.43V5524.6H6075.36V5502.45C6070.14 5509.47 6063.02 5515.32 6054.02 5520.01C6045.01 5524.69 6034.75 5527.03 6023.22 5527.03C6010.43 5527.03 5998.73 5523.79 5988.1 5517.31C5977.47 5510.64 5969.01 5501.46 5962.7 5489.75C5956.58 5477.86 5953.52 5464.44 5953.52 5449.5ZM6075.36 5450.04C6075.36 5439.77 6073.2 5430.85 6068.88 5423.29C6064.73 5415.73 6059.24 5409.96 6052.4 5406C6045.55 5402.04 6038.17 5400.06 6030.24 5400.06C6022.32 5400.06 6014.94 5402.04 6008.09 5406C6001.25 5409.78 5995.66 5415.45 5991.34 5423.02C5987.2 5430.4 5985.13 5439.23 5985.13 5449.5C5985.13 5459.76 5987.2 5468.77 5991.34 5476.51C5995.66 5484.26 6001.25 5490.2 6008.09 5494.34C6015.12 5498.3 6022.5 5500.29 6030.24 5500.29C6038.17 5500.29 6045.55 5498.3 6052.4 5494.34C6059.24 5490.38 6064.73 5484.62 6068.88 5477.05C6073.2 5469.31 6075.36 5460.3 6075.36 5450.04ZM6200.91 5527.03C6189.21 5527.03 6178.67 5524.96 6169.3 5520.82C6160.12 5516.49 6152.83 5510.73 6147.42 5503.53C6142.02 5496.14 6139.14 5487.95 6138.78 5478.94H6170.66C6171.2 5485.25 6174.17 5490.56 6179.57 5494.88C6185.15 5499.02 6192.09 5501.1 6200.37 5501.1C6209.02 5501.1 6215.68 5499.47 6220.37 5496.23C6225.23 5492.81 6227.66 5488.49 6227.66 5483.27C6227.66 5477.68 6224.96 5473.54 6219.55 5470.84C6214.33 5468.14 6205.96 5465.16 6194.43 5461.92C6183.26 5458.86 6174.17 5455.89 6167.14 5453.01C6160.12 5450.13 6154 5445.71 6148.77 5439.77C6143.73 5433.83 6141.21 5425.99 6141.21 5416.27C6141.21 5408.34 6143.55 5401.14 6148.23 5394.65C6152.92 5387.99 6159.58 5382.77 6168.22 5378.98C6177.05 5375.2 6187.14 5373.31 6198.48 5373.31C6215.41 5373.31 6229.01 5377.63 6239.28 5386.28C6249.72 5394.74 6255.31 5406.36 6256.03 5421.13H6225.23C6224.69 5414.46 6221.99 5409.15 6217.12 5405.19C6212.26 5401.23 6205.69 5399.25 6197.4 5399.25C6189.3 5399.25 6183.08 5400.78 6178.76 5403.84C6174.44 5406.9 6172.28 5410.95 6172.28 5416C6172.28 5419.96 6173.72 5423.29 6176.6 5425.99C6179.48 5428.69 6182.99 5430.85 6187.14 5432.47C6191.28 5433.92 6197.4 5435.81 6205.51 5438.15C6216.31 5441.03 6225.14 5444 6231.98 5447.06C6239.01 5449.95 6245.04 5454.27 6250.08 5460.03C6255.13 5465.79 6257.74 5473.45 6257.92 5482.99C6257.92 5491.46 6255.58 5499.02 6250.89 5505.69C6246.21 5512.35 6239.55 5517.58 6230.9 5521.36C6222.44 5525.14 6212.44 5527.03 6200.91 5527.03ZM6392.17 5324.68V5524.6H6361.37V5324.68H6392.17ZM6497.18 5527.03C6483.13 5527.03 6470.43 5523.88 6459.08 5517.58C6447.74 5511.09 6438.82 5502.09 6432.34 5490.56C6425.85 5478.85 6422.61 5465.34 6422.61 5450.04C6422.61 5434.91 6425.94 5421.49 6432.61 5409.78C6439.27 5398.07 6448.37 5389.07 6459.89 5382.77C6471.42 5376.46 6484.3 5373.31 6498.53 5373.31C6512.76 5373.31 6525.63 5376.46 6537.16 5382.77C6548.69 5389.07 6557.78 5398.07 6564.45 5409.78C6571.11 5421.49 6574.44 5434.91 6574.44 5450.04C6574.44 5465.16 6571.02 5478.58 6564.18 5490.29C6557.33 5502 6547.97 5511.09 6536.08 5517.58C6524.37 5523.88 6511.4 5527.03 6497.18 5527.03ZM6497.18 5500.29C6505.1 5500.29 6512.49 5498.39 6519.33 5494.61C6526.35 5490.83 6532.03 5485.16 6536.35 5477.59C6540.67 5470.03 6542.83 5460.84 6542.83 5450.04C6542.83 5439.23 6540.76 5430.13 6536.62 5422.75C6532.48 5415.18 6526.98 5409.51 6520.14 5405.73C6513.3 5401.95 6505.91 5400.06 6497.99 5400.06C6490.06 5400.06 6482.68 5401.95 6475.83 5405.73C6469.17 5409.51 6463.86 5415.18 6459.89 5422.75C6455.93 5430.13 6453.95 5439.23 6453.95 5450.04C6453.95 5466.06 6458 5478.49 6466.11 5487.32C6474.39 5495.96 6484.75 5500.29 6497.18 5500.29ZM6679.99 5373.31C6691.7 5373.31 6702.15 5375.74 6711.33 5380.6C6720.7 5385.47 6727.99 5392.67 6733.21 5402.22C6738.44 5411.76 6741.05 5423.29 6741.05 5436.8V5524.6H6710.52V5441.39C6710.52 5428.06 6707.19 5417.89 6700.52 5410.86C6693.86 5403.66 6684.76 5400.06 6673.24 5400.06C6661.71 5400.06 6652.53 5403.66 6645.68 5410.86C6639.02 5417.89 6635.69 5428.06 6635.69 5441.39V5524.6H6604.89V5375.74H6635.69V5392.76C6640.73 5386.64 6647.12 5381.86 6654.87 5378.44C6662.79 5375.02 6671.17 5373.31 6679.99 5373.31ZM6840.31 5373.31C6851.84 5373.31 6862.01 5375.65 6870.84 5380.33C6879.84 5384.84 6886.87 5390.51 6891.91 5397.35V5375.74H6922.98V5527.03C6922.98 5540.72 6920.1 5552.88 6914.33 5563.5C6908.57 5574.31 6900.19 5582.77 6889.21 5588.9C6878.4 5595.02 6865.43 5598.08 6850.3 5598.08C6830.13 5598.08 6813.38 5593.31 6800.05 5583.76C6786.73 5574.4 6779.16 5561.61 6777.36 5545.4H6807.89C6810.23 5553.15 6815.18 5559.36 6822.75 5564.04C6830.49 5568.91 6839.68 5571.34 6850.3 5571.34C6862.73 5571.34 6872.73 5567.56 6880.29 5559.99C6888.04 5552.43 6891.91 5541.44 6891.91 5527.03V5502.18C6886.69 5509.2 6879.57 5515.14 6870.57 5520.01C6861.74 5524.69 6851.66 5527.03 6840.31 5527.03C6827.34 5527.03 6815.45 5523.79 6804.65 5517.31C6794.02 5510.64 6785.56 5501.46 6779.25 5489.75C6773.13 5477.86 6770.07 5464.44 6770.07 5449.5C6770.07 5434.55 6773.13 5421.31 6779.25 5409.78C6785.56 5398.25 6794.02 5389.34 6804.65 5383.04C6815.45 5376.55 6827.34 5373.31 6840.31 5373.31ZM6891.91 5450.04C6891.91 5439.77 6889.75 5430.85 6885.43 5423.29C6881.28 5415.73 6875.79 5409.96 6868.95 5406C6862.1 5402.04 6854.72 5400.06 6846.79 5400.06C6838.87 5400.06 6831.48 5402.04 6824.64 5406C6817.8 5409.78 6812.21 5415.45 6807.89 5423.02C6803.75 5430.4 6801.68 5439.23 6801.68 5449.5C6801.68 5459.76 6803.75 5468.77 6807.89 5476.51C6812.21 5484.26 6817.8 5490.2 6824.64 5494.34C6831.66 5498.3 6839.05 5500.29 6846.79 5500.29C6854.72 5500.29 6862.1 5498.3 6868.95 5494.34C6875.79 5490.38 6881.28 5484.62 6885.43 5477.05C6889.75 5469.31 6891.91 5460.3 6891.91 5450.04ZM7023.34 5449.5C7023.34 5434.55 7026.4 5421.31 7032.53 5409.78C7038.83 5398.25 7047.3 5389.34 7057.92 5383.04C7068.73 5376.55 7080.62 5373.31 7093.58 5373.31C7105.29 5373.31 7115.47 5375.65 7124.11 5380.33C7132.94 5384.84 7139.96 5390.51 7145.18 5397.35V5375.74H7176.25V5524.6H7145.18V5502.45C7139.96 5509.47 7132.85 5515.32 7123.84 5520.01C7114.84 5524.69 7104.57 5527.03 7093.04 5527.03C7080.26 5527.03 7068.55 5523.79 7057.92 5517.31C7047.3 5510.64 7038.83 5501.46 7032.53 5489.75C7026.4 5477.86 7023.34 5464.44 7023.34 5449.5ZM7145.18 5450.04C7145.18 5439.77 7143.02 5430.85 7138.7 5423.29C7134.56 5415.73 7129.07 5409.96 7122.22 5406C7115.38 5402.04 7107.99 5400.06 7100.07 5400.06C7092.14 5400.06 7084.76 5402.04 7077.91 5406C7071.07 5409.78 7065.49 5415.45 7061.16 5423.02C7057.02 5430.4 7054.95 5439.23 7054.95 5449.5C7054.95 5459.76 7057.02 5468.77 7061.16 5476.51C7065.49 5484.26 7071.07 5490.2 7077.91 5494.34C7084.94 5498.3 7092.32 5500.29 7100.07 5500.29C7107.99 5500.29 7115.38 5498.3 7122.22 5494.34C7129.07 5490.38 7134.56 5484.62 7138.7 5477.05C7143.02 5469.31 7145.18 5460.3 7145.18 5450.04ZM7270.74 5527.03C7259.03 5527.03 7248.49 5524.96 7239.13 5520.82C7229.94 5516.49 7222.65 5510.73 7217.25 5503.53C7211.84 5496.14 7208.96 5487.95 7208.6 5478.94H7240.48C7241.02 5485.25 7243.99 5490.56 7249.39 5494.88C7254.98 5499.02 7261.91 5501.1 7270.2 5501.1C7278.84 5501.1 7285.51 5499.47 7290.19 5496.23C7295.05 5492.81 7297.48 5488.49 7297.48 5483.27C7297.48 5477.68 7294.78 5473.54 7289.38 5470.84C7284.16 5468.14 7275.78 5465.16 7264.25 5461.92C7253.09 5458.86 7243.99 5455.89 7236.97 5453.01C7229.94 5450.13 7223.82 5445.71 7218.6 5439.77C7213.55 5433.83 7211.03 5425.99 7211.03 5416.27C7211.03 5408.34 7213.37 5401.14 7218.06 5394.65C7222.74 5387.99 7229.4 5382.77 7238.05 5378.98C7246.87 5375.2 7256.96 5373.31 7268.31 5373.31C7285.24 5373.31 7298.83 5377.63 7309.1 5386.28C7319.55 5394.74 7325.13 5406.36 7325.85 5421.13H7295.05C7294.51 5414.46 7291.81 5409.15 7286.95 5405.19C7282.08 5401.23 7275.51 5399.25 7267.23 5399.25C7259.12 5399.25 7252.91 5400.78 7248.58 5403.84C7244.26 5406.9 7242.1 5410.95 7242.1 5416C7242.1 5419.96 7243.54 5423.29 7246.42 5425.99C7249.3 5428.69 7252.82 5430.85 7256.96 5432.47C7261.1 5433.92 7267.23 5435.81 7275.33 5438.15C7286.14 5441.03 7294.96 5444 7301.81 5447.06C7308.83 5449.95 7314.86 5454.27 7319.91 5460.03C7324.95 5465.79 7327.56 5473.45 7327.74 5482.99C7327.74 5491.46 7325.4 5499.02 7320.72 5505.69C7316.03 5512.35 7309.37 5517.58 7300.73 5521.36C7292.26 5525.14 7282.26 5527.03 7270.74 5527.03ZM7446.87 5356.02C7441.28 5356.02 7436.6 5354.13 7432.82 5350.35C7429.04 5346.56 7427.15 5341.88 7427.15 5336.3C7427.15 5330.71 7429.04 5326.03 7432.82 5322.25C7436.6 5318.47 7441.28 5316.58 7446.87 5316.58C7452.27 5316.58 7456.86 5318.47 7460.65 5322.25C7464.43 5326.03 7466.32 5330.71 7466.32 5336.3C7466.32 5341.88 7464.43 5346.56 7460.65 5350.35C7456.86 5354.13 7452.27 5356.02 7446.87 5356.02ZM7462 5375.74V5524.6H7431.2V5375.74H7462ZM7538.36 5400.87V5483.27C7538.36 5488.85 7539.62 5492.9 7542.14 5495.42C7544.85 5497.76 7549.35 5498.93 7555.65 5498.93H7574.56V5524.6H7550.25C7536.38 5524.6 7525.76 5521.36 7518.37 5514.87C7510.99 5508.39 7507.29 5497.85 7507.29 5483.27V5400.87H7489.73V5375.74H7507.29V5338.73H7538.36V5375.74H7574.56V5400.87H7538.36ZM7619.7 5309.28L7616.46 5364.66H7595.39L7591.87 5309.28H7619.7ZM7703.42 5527.03C7691.71 5527.03 7681.17 5524.96 7671.81 5520.82C7662.62 5516.49 7655.33 5510.73 7649.92 5503.53C7644.52 5496.14 7641.64 5487.95 7641.28 5478.94H7673.16C7673.7 5485.25 7676.67 5490.56 7682.07 5494.88C7687.66 5499.02 7694.59 5501.1 7702.88 5501.1C7711.52 5501.1 7718.18 5499.47 7722.87 5496.23C7727.73 5492.81 7730.16 5488.49 7730.16 5483.27C7730.16 5477.68 7727.46 5473.54 7722.06 5470.84C7716.83 5468.14 7708.46 5465.16 7696.93 5461.92C7685.77 5458.86 7676.67 5455.89 7669.65 5453.01C7662.62 5450.13 7656.5 5445.71 7651.27 5439.77C7646.23 5433.83 7643.71 5425.99 7643.71 5416.27C7643.71 5408.34 7646.05 5401.14 7650.73 5394.65C7655.42 5387.99 7662.08 5382.77 7670.73 5378.98C7679.55 5375.2 7689.64 5373.31 7700.98 5373.31C7717.91 5373.31 7731.51 5377.63 7741.78 5386.28C7752.22 5394.74 7757.81 5406.36 7758.53 5421.13H7727.73C7727.19 5414.46 7724.49 5409.15 7719.63 5405.19C7714.76 5401.23 7708.19 5399.25 7699.9 5399.25C7691.8 5399.25 7685.59 5400.78 7681.26 5403.84C7676.94 5406.9 7674.78 5410.95 7674.78 5416C7674.78 5419.96 7676.22 5423.29 7679.1 5425.99C7681.98 5428.69 7685.5 5430.85 7689.64 5432.47C7693.78 5433.92 7699.9 5435.81 7708.01 5438.15C7718.82 5441.03 7727.64 5444 7734.48 5447.06C7741.51 5449.95 7747.54 5454.27 7752.59 5460.03C7757.63 5465.79 7760.24 5473.45 7760.42 5482.99C7760.42 5491.46 7758.08 5499.02 7753.4 5505.69C7748.71 5512.35 7742.05 5517.58 7733.4 5521.36C7724.94 5525.14 7714.94 5527.03 7703.42 5527.03Z" fill="white"/>
<path d="M4601.13 5449.5C4601.13 5434.55 4604.2 5421.31 4610.32 5409.78C4616.62 5398.25 4625.09 5389.34 4635.72 5383.04C4646.52 5376.55 4658.41 5373.31 4671.38 5373.31C4683.08 5373.31 4693.26 5375.65 4701.9 5380.33C4710.73 5384.84 4717.75 5390.51 4722.98 5397.35V5375.74H4754.05V5524.6H4722.98V5502.45C4717.75 5509.47 4710.64 5515.32 4701.63 5520.01C4692.63 5524.69 4682.36 5527.03 4670.84 5527.03C4658.05 5527.03 4646.34 5523.79 4635.72 5517.31C4625.09 5510.64 4616.62 5501.46 4610.32 5489.75C4604.2 5477.86 4601.13 5464.44 4601.13 5449.5ZM4722.98 5450.04C4722.98 5439.77 4720.82 5430.85 4716.49 5423.29C4712.35 5415.73 4706.86 5409.96 4700.01 5406C4693.17 5402.04 4685.78 5400.06 4677.86 5400.06C4669.94 5400.06 4662.55 5402.04 4655.71 5406C4648.86 5409.78 4643.28 5415.45 4638.96 5423.02C4634.81 5430.4 4632.74 5439.23 4632.74 5449.5C4632.74 5459.76 4634.81 5468.77 4638.96 5476.51C4643.28 5484.26 4648.86 5490.2 4655.71 5494.34C4662.73 5498.3 4670.12 5500.29 4677.86 5500.29C4685.78 5500.29 4693.17 5498.3 4700.01 5494.34C4706.86 5490.38 4712.35 5484.62 4716.49 5477.05C4720.82 5469.31 4722.98 5460.3 4722.98 5450.04ZM4869.6 5373.31C4881.31 5373.31 4891.76 5375.74 4900.94 5380.6C4910.31 5385.47 4917.6 5392.67 4922.82 5402.22C4928.05 5411.76 4930.66 5423.29 4930.66 5436.8V5524.6H4900.13V5441.39C4900.13 5428.06 4896.8 5417.89 4890.13 5410.86C4883.47 5403.66 4874.38 5400.06 4862.85 5400.06C4851.32 5400.06 4842.14 5403.66 4835.29 5410.86C4828.63 5417.89 4825.3 5428.06 4825.3 5441.39V5524.6H4794.5V5375.74H4825.3V5392.76C4830.34 5386.64 4836.73 5381.86 4844.48 5378.44C4852.4 5375.02 4860.78 5373.31 4869.6 5373.31ZM5103.94 5375.74L5012.63 5594.57H4980.75L5011.01 5522.17L4952.38 5375.74H4986.69L5028.57 5489.21L5072.06 5375.74H5103.94ZM5163.12 5400.87V5483.27C5163.12 5488.85 5164.38 5492.9 5166.9 5495.42C5169.6 5497.76 5174.1 5498.93 5180.41 5498.93H5199.32V5524.6H5175C5161.14 5524.6 5150.51 5521.36 5143.12 5514.87C5135.74 5508.39 5132.05 5497.85 5132.05 5483.27V5400.87H5114.49V5375.74H5132.05V5338.73H5163.12V5375.74H5199.32V5400.87H5163.12ZM5304.7 5373.31C5316.05 5373.31 5326.13 5375.74 5334.96 5380.6C5343.96 5385.47 5350.99 5392.67 5356.03 5402.22C5361.25 5411.76 5363.86 5423.29 5363.86 5436.8V5524.6H5333.34V5441.39C5333.34 5428.06 5330 5417.89 5323.34 5410.86C5316.68 5403.66 5307.58 5400.06 5296.05 5400.06C5284.53 5400.06 5275.34 5403.66 5268.5 5410.86C5261.83 5417.89 5258.5 5428.06 5258.5 5441.39V5524.6H5227.7V5324.68H5258.5V5393.03C5263.73 5386.73 5270.3 5381.86 5278.22 5378.44C5286.33 5375.02 5295.15 5373.31 5304.7 5373.31ZM5418.82 5356.02C5413.24 5356.02 5408.55 5354.13 5404.77 5350.35C5400.99 5346.56 5399.1 5341.88 5399.1 5336.3C5399.1 5330.71 5400.99 5326.03 5404.77 5322.25C5408.55 5318.47 5413.24 5316.58 5418.82 5316.58C5424.22 5316.58 5428.81 5318.47 5432.6 5322.25C5436.38 5326.03 5438.27 5330.71 5438.27 5336.3C5438.27 5341.88 5436.38 5346.56 5432.6 5350.35C5428.81 5354.13 5424.22 5356.02 5418.82 5356.02ZM5433.95 5375.74V5524.6H5403.15V5375.74H5433.95ZM5549.49 5373.31C5561.19 5373.31 5571.64 5375.74 5580.83 5380.6C5590.19 5385.47 5597.49 5392.67 5602.71 5402.22C5607.93 5411.76 5610.54 5423.29 5610.54 5436.8V5524.6H5580.02V5441.39C5580.02 5428.06 5576.68 5417.89 5570.02 5410.86C5563.36 5403.66 5554.26 5400.06 5542.73 5400.06C5531.21 5400.06 5522.02 5403.66 5515.18 5410.86C5508.51 5417.89 5505.18 5428.06 5505.18 5441.39V5524.6H5474.38V5375.74H5505.18V5392.76C5510.22 5386.64 5516.62 5381.86 5524.36 5378.44C5532.29 5375.02 5540.66 5373.31 5549.49 5373.31ZM5709.8 5373.31C5721.33 5373.31 5731.51 5375.65 5740.33 5380.33C5749.34 5384.84 5756.36 5390.51 5761.41 5397.35V5375.74H5792.47V5527.03C5792.47 5540.72 5789.59 5552.88 5783.83 5563.5C5778.07 5574.31 5769.69 5582.77 5758.7 5588.9C5747.9 5595.02 5734.93 5598.08 5719.8 5598.08C5699.63 5598.08 5682.88 5593.31 5669.55 5583.76C5656.22 5574.4 5648.66 5561.61 5646.86 5545.4H5677.39C5679.73 5553.15 5684.68 5559.36 5692.24 5564.04C5699.99 5568.91 5709.17 5571.34 5719.8 5571.34C5732.23 5571.34 5742.22 5567.56 5749.79 5559.99C5757.53 5552.43 5761.41 5541.44 5761.41 5527.03V5502.18C5756.18 5509.2 5749.07 5515.14 5740.06 5520.01C5731.24 5524.69 5721.15 5527.03 5709.8 5527.03C5696.84 5527.03 5684.95 5523.79 5674.14 5517.31C5663.52 5510.64 5655.05 5501.46 5648.75 5489.75C5642.62 5477.86 5639.56 5464.44 5639.56 5449.5C5639.56 5434.55 5642.62 5421.31 5648.75 5409.78C5655.05 5398.25 5663.52 5389.34 5674.14 5383.04C5684.95 5376.55 5696.84 5373.31 5709.8 5373.31ZM5761.41 5450.04C5761.41 5439.77 5759.24 5430.85 5754.92 5423.29C5750.78 5415.73 5745.29 5409.96 5738.44 5406C5731.6 5402.04 5724.21 5400.06 5716.29 5400.06C5708.36 5400.06 5700.98 5402.04 5694.14 5406C5687.29 5409.78 5681.71 5415.45 5677.39 5423.02C5673.24 5430.4 5671.17 5439.23 5671.17 5449.5C5671.17 5459.76 5673.24 5468.77 5677.39 5476.51C5681.71 5484.26 5687.29 5490.2 5694.14 5494.34C5701.16 5498.3 5708.54 5500.29 5716.29 5500.29C5724.21 5500.29 5731.6 5498.3 5738.44 5494.34C5745.29 5490.38 5750.78 5484.62 5754.92 5477.05C5759.24 5469.31 5761.41 5460.3 5761.41 5450.04ZM7853.61 5449.5C7853.61 5434.55 7856.67 5421.31 7862.8 5409.78C7869.1 5398.25 7877.56 5389.34 7888.19 5383.04C7899 5376.55 7910.88 5373.31 7923.85 5373.31C7935.56 5373.31 7945.73 5375.65 7954.38 5380.33C7963.21 5384.84 7970.23 5390.51 7975.45 5397.35V5375.74H8006.52V5524.6H7975.45V5502.45C7970.23 5509.47 7963.12 5515.32 7954.11 5520.01C7945.1 5524.69 7934.84 5527.03 7923.31 5527.03C7910.52 5527.03 7898.82 5523.79 7888.19 5517.31C7877.56 5510.64 7869.1 5501.46 7862.8 5489.75C7856.67 5477.86 7853.61 5464.44 7853.61 5449.5ZM7975.45 5450.04C7975.45 5439.77 7973.29 5430.85 7968.97 5423.29C7964.83 5415.73 7959.33 5409.96 7952.49 5406C7945.64 5402.04 7938.26 5400.06 7930.34 5400.06C7922.41 5400.06 7915.03 5402.04 7908.18 5406C7901.34 5409.78 7895.76 5415.45 7891.43 5423.02C7887.29 5430.4 7885.22 5439.23 7885.22 5449.5C7885.22 5459.76 7887.29 5468.77 7891.43 5476.51C7895.76 5484.26 7901.34 5490.2 7908.18 5494.34C7915.21 5498.3 7922.59 5500.29 7930.34 5500.29C7938.26 5500.29 7945.64 5498.3 7952.49 5494.34C7959.33 5490.38 7964.83 5484.62 7968.97 5477.05C7973.29 5469.31 7975.45 5460.3 7975.45 5450.04ZM8246.89 5375.74L8200.69 5524.6H8168.27L8138.29 5414.64L8108.3 5524.6H8075.88L8029.41 5375.74H8060.75L8091.82 5495.42L8123.43 5375.74H8155.58L8185.84 5494.88L8216.63 5375.74H8246.89ZM8406.34 5446.52C8406.34 5452.11 8405.98 5457.15 8405.26 5461.65H8291.52C8292.42 5473.54 8296.83 5483.08 8304.76 5490.29C8312.68 5497.49 8322.41 5501.1 8333.94 5501.1C8350.51 5501.1 8362.21 5494.16 8369.06 5480.29H8402.29C8397.78 5493.98 8389.59 5505.24 8377.7 5514.06C8365.99 5522.71 8351.41 5527.03 8333.94 5527.03C8319.71 5527.03 8306.92 5523.88 8295.57 5517.58C8284.41 5511.09 8275.58 5502.09 8269.1 5490.56C8262.79 5478.85 8259.64 5465.34 8259.64 5450.04C8259.64 5434.73 8262.7 5421.31 8268.83 5409.78C8275.13 5398.07 8283.87 5389.07 8295.03 5382.77C8306.38 5376.46 8319.35 5373.31 8333.94 5373.31C8347.98 5373.31 8360.5 5376.37 8371.49 5382.5C8382.47 5388.62 8391.03 5397.26 8397.15 5408.43C8403.28 5419.42 8406.34 5432.11 8406.34 5446.52ZM8374.19 5436.8C8374.01 5425.45 8369.96 5416.36 8362.03 5409.51C8354.11 5402.67 8344.29 5399.25 8332.59 5399.25C8321.96 5399.25 8312.86 5402.67 8305.3 5409.51C8297.73 5416.18 8293.23 5425.27 8291.79 5436.8H8374.19ZM8490.68 5527.03C8478.97 5527.03 8468.44 5524.96 8459.07 5520.82C8449.89 5516.49 8442.59 5510.73 8437.19 5503.53C8431.78 5496.14 8428.9 5487.95 8428.54 5478.94H8460.42C8460.96 5485.25 8463.93 5490.56 8469.34 5494.88C8474.92 5499.02 8481.85 5501.1 8490.14 5501.1C8498.78 5501.1 8505.45 5499.47 8510.13 5496.23C8514.99 5492.81 8517.43 5488.49 8517.43 5483.27C8517.43 5477.68 8514.72 5473.54 8509.32 5470.84C8504.1 5468.14 8495.72 5465.16 8484.2 5461.92C8473.03 5458.86 8463.93 5455.89 8456.91 5453.01C8449.89 5450.13 8443.76 5445.71 8438.54 5439.77C8433.5 5433.83 8430.97 5425.99 8430.97 5416.27C8430.97 5408.34 8433.32 5401.14 8438 5394.65C8442.68 5387.99 8449.34 5382.77 8457.99 5378.98C8466.82 5375.2 8476.9 5373.31 8488.25 5373.31C8505.18 5373.31 8518.78 5377.63 8529.04 5386.28C8539.49 5394.74 8545.07 5406.36 8545.79 5421.13H8514.99C8514.45 5414.46 8511.75 5409.15 8506.89 5405.19C8502.03 5401.23 8495.45 5399.25 8487.17 5399.25C8479.06 5399.25 8472.85 5400.78 8468.53 5403.84C8464.2 5406.9 8462.04 5410.95 8462.04 5416C8462.04 5419.96 8463.48 5423.29 8466.36 5425.99C8469.25 5428.69 8472.76 5430.85 8476.9 5432.47C8481.04 5433.92 8487.17 5435.81 8495.27 5438.15C8506.08 5441.03 8514.9 5444 8521.75 5447.06C8528.77 5449.95 8534.81 5454.27 8539.85 5460.03C8544.89 5465.79 8547.5 5473.45 8547.68 5482.99C8547.68 5491.46 8545.34 5499.02 8540.66 5505.69C8535.98 5512.35 8529.31 5517.58 8520.67 5521.36C8512.2 5525.14 8502.21 5527.03 8490.68 5527.03ZM8645.53 5527.03C8631.48 5527.03 8618.78 5523.88 8607.44 5517.58C8596.09 5511.09 8587.18 5502.09 8580.69 5490.56C8574.21 5478.85 8570.97 5465.34 8570.97 5450.04C8570.97 5434.91 8574.3 5421.49 8580.96 5409.78C8587.63 5398.07 8596.72 5389.07 8608.25 5382.77C8619.77 5376.46 8632.65 5373.31 8646.88 5373.31C8661.11 5373.31 8673.99 5376.46 8685.51 5382.77C8697.04 5389.07 8706.14 5398.07 8712.8 5409.78C8719.46 5421.49 8722.8 5434.91 8722.8 5450.04C8722.8 5465.16 8719.37 5478.58 8712.53 5490.29C8705.69 5502 8696.32 5511.09 8684.43 5517.58C8672.73 5523.88 8659.76 5527.03 8645.53 5527.03ZM8645.53 5500.29C8653.45 5500.29 8660.84 5498.39 8667.68 5494.61C8674.71 5490.83 8680.38 5485.16 8684.7 5477.59C8689.03 5470.03 8691.19 5460.84 8691.19 5450.04C8691.19 5439.23 8689.12 5430.13 8684.97 5422.75C8680.83 5415.18 8675.34 5409.51 8668.49 5405.73C8661.65 5401.95 8654.27 5400.06 8646.34 5400.06C8638.42 5400.06 8631.03 5401.95 8624.19 5405.73C8617.52 5409.51 8612.21 5415.18 8608.25 5422.75C8604.29 5430.13 8602.3 5439.23 8602.3 5450.04C8602.3 5466.06 8606.36 5478.49 8614.46 5487.32C8622.75 5495.96 8633.1 5500.29 8645.53 5500.29ZM8933.44 5373.31C8945.15 5373.31 8955.59 5375.74 8964.78 5380.6C8974.14 5385.47 8981.44 5392.67 8986.66 5402.22C8992.06 5411.76 8994.76 5423.29 8994.76 5436.8V5524.6H8964.24V5441.39C8964.24 5428.06 8960.9 5417.89 8954.24 5410.86C8947.58 5403.66 8938.48 5400.06 8926.95 5400.06C8915.43 5400.06 8906.24 5403.66 8899.4 5410.86C8892.73 5417.89 8889.4 5428.06 8889.4 5441.39V5524.6H8858.87V5441.39C8858.87 5428.06 8855.54 5417.89 8848.88 5410.86C8842.21 5403.66 8833.12 5400.06 8821.59 5400.06C8810.07 5400.06 8800.88 5403.66 8794.04 5410.86C8787.37 5417.89 8784.04 5428.06 8784.04 5441.39V5524.6H8753.24V5375.74H8784.04V5392.76C8789.08 5386.64 8795.48 5381.86 8803.22 5378.44C8810.97 5375.02 8819.25 5373.31 8828.08 5373.31C8839.96 5373.31 8850.59 5375.83 8859.95 5380.87C8869.32 5385.92 8876.52 5393.21 8881.57 5402.76C8886.07 5393.75 8893.09 5386.64 8902.64 5381.41C8912.19 5376.01 8922.45 5373.31 8933.44 5373.31ZM9170.39 5446.52C9170.39 5452.11 9170.03 5457.15 9169.31 5461.65H9055.57C9056.47 5473.54 9060.88 5483.08 9068.81 5490.29C9076.73 5497.49 9086.46 5501.1 9097.98 5501.1C9114.55 5501.1 9126.26 5494.16 9133.1 5480.29H9166.33C9161.83 5493.98 9153.64 5505.24 9141.75 5514.06C9130.04 5522.71 9115.45 5527.03 9097.98 5527.03C9083.75 5527.03 9070.97 5523.88 9059.62 5517.58C9048.45 5511.09 9039.63 5502.09 9033.14 5490.56C9026.84 5478.85 9023.69 5465.34 9023.69 5450.04C9023.69 5434.73 9026.75 5421.31 9032.87 5409.78C9039.18 5398.07 9047.91 5389.07 9059.08 5382.77C9070.43 5376.46 9083.39 5373.31 9097.98 5373.31C9112.03 5373.31 9124.55 5376.37 9135.54 5382.5C9146.52 5388.62 9155.08 5397.26 9161.2 5408.43C9167.32 5419.42 9170.39 5432.11 9170.39 5446.52ZM9138.24 5436.8C9138.06 5425.45 9134 5416.36 9126.08 5409.51C9118.15 5402.67 9108.34 5399.25 9096.63 5399.25C9086.01 5399.25 9076.91 5402.67 9069.35 5409.51C9061.78 5416.18 9057.28 5425.27 9055.84 5436.8H9138.24Z" fill="#34CD3C"/>
<path d="M3890.91 2803.83H3203.74C2967.17 2803.83 2792.57 2756.89 2679.92 2663.01C2567.27 2569.14 2510.94 2424.57 2510.94 2229.31V1353.45C2510.94 1156.32 2567.27 1010.81 2679.92 916.934C2792.57 823.059 2967.17 776.122 3203.74 776.122H3890.91C3958.5 776.122 3992.29 809.917 3992.29 877.507V1218.27C3992.29 1285.86 3958.5 1319.66 3890.91 1319.66H3324.84C3210.31 1319.66 3153.05 1366.6 3153.05 1460.47V2130.74C3153.05 2220.86 3210.31 2265.92 3324.84 2265.92H3890.91C3958.5 2265.92 3992.29 2299.72 3992.29 2367.31V2702.44C3992.29 2770.03 3958.5 2803.83 3890.91 2803.83ZM6014.49 2271.55C6014.49 2357.92 6001.35 2436.77 5975.07 2508.12C5950.66 2577.59 5906.54 2637.67 5842.7 2688.36C5778.87 2739.05 5689.69 2777.54 5575.16 2803.83C5462.51 2831.99 5317.94 2846.07 5141.45 2846.07C4964.97 2846.07 4819.46 2831.99 4704.94 2803.83C4592.28 2777.54 4504.04 2739.05 4440.21 2688.36C4376.37 2637.67 4331.31 2577.59 4305.03 2508.12C4278.74 2436.77 4265.6 2357.92 4265.6 2271.55V1311.21C4265.6 1224.84 4278.74 1146.93 4305.03 1077.46C4331.31 1006.12 4376.37 945.097 4440.21 894.404C4504.04 843.712 4592.28 804.284 4704.94 776.122C4819.46 747.959 4964.97 733.878 5141.45 733.878C5317.94 733.878 5462.51 747.959 5575.16 776.122C5689.69 804.284 5778.87 843.712 5842.7 894.404C5906.54 945.097 5950.66 1006.12 5975.07 1077.46C6001.35 1146.93 6014.49 1224.84 6014.49 1311.21V2271.55ZM4904.89 2170.17C4904.89 2207.72 4918.97 2239.64 4947.13 2265.92C4975.3 2290.33 5040.07 2302.53 5141.45 2302.53C5244.72 2302.53 5309.49 2290.33 5335.78 2265.92C5363.94 2239.64 5378.02 2207.72 5378.02 2170.17V1412.6C5378.02 1375.05 5363.94 1344.07 5335.78 1319.66C5309.49 1295.25 5244.72 1283.05 5141.45 1283.05C5040.07 1283.05 4975.3 1295.25 4947.13 1319.66C4918.97 1344.07 4904.89 1375.05 4904.89 1412.6V2170.17ZM7423.48 2803.83H6474.4C6406.81 2803.83 6373.02 2770.03 6373.02 2702.44V877.507C6373.02 809.917 6406.81 776.122 6474.4 776.122H7423.48C7660.04 776.122 7834.65 823.059 7947.3 916.934C8059.95 1010.81 8116.28 1155.38 8116.28 1350.64V2229.31C8116.28 2424.57 8059.95 2569.14 7947.3 2663.01C7834.65 2756.89 7660.04 2803.83 7423.48 2803.83ZM7012.31 1314.03V2271.55H7347.44C7435.68 2271.55 7479.8 2225.55 7479.8 2133.56V1449.21C7479.8 1359.09 7435.68 1314.03 7347.44 1314.03H7012.31ZM9882.33 2803.83H8575.59C8508 2803.83 8474.21 2770.03 8474.21 2702.44V877.507C8474.21 809.917 8508 776.122 8575.59 776.122H9882.33C9949.92 776.122 9983.72 809.917 9983.72 877.507V1207.01C9983.72 1274.6 9949.92 1308.39 9882.33 1308.39H9105.05V1525.25H9654.22C9721.81 1525.25 9755.6 1559.04 9755.6 1626.63V1927.97C9755.6 1995.56 9721.81 2029.36 9654.22 2029.36H9105.05V2271.55H9882.33C9949.92 2271.55 9983.72 2305.35 9983.72 2372.94V2702.44C9983.72 2770.03 9949.92 2803.83 9882.33 2803.83Z" fill="white"/>
<path d="M1369.05 4153.46H1156.61C910.076 4153.46 715.997 4119.36 574.371 4051.17C432.745 3982.98 333.083 3888.57 275.383 3767.92C217.684 3647.28 188.834 3508.28 188.834 3350.91V1497.98C188.834 1337.99 217.684 1197.68 275.383 1077.03C333.083 956.39 432.745 861.973 574.371 793.783C715.997 725.592 910.076 691.497 1156.61 691.497H1369.05C1463.47 691.497 1510.67 738.706 1510.67 833.123V1309.14C1510.67 1403.56 1463.47 1450.77 1369.05 1450.77H1247.09C1184.15 1450.77 1140.87 1466.5 1117.27 1497.98C1096.29 1529.45 1085.8 1579.28 1085.8 1647.47V3205.35C1085.8 3273.54 1096.29 3323.38 1117.27 3354.85C1140.87 3386.32 1184.15 3402.06 1247.09 3402.06H1369.05C1463.47 3402.06 1510.67 3449.26 1510.67 3543.68V4011.83C1510.67 4106.25 1463.47 4153.46 1369.05 4153.46Z" fill="#34CD3C"/>
<path d="M11150.6 4153.46H11363C11609.5 4153.46 11803.6 4119.36 11945.2 4051.17C12086.9 3982.98 12186.5 3888.57 12244.2 3767.92C12301.9 3647.28 12330.8 3508.28 12330.8 3350.91V1497.98C12330.8 1337.99 12301.9 1197.68 12244.2 1077.03C12186.5 956.39 12086.9 861.973 11945.2 793.783C11803.6 725.592 11609.5 691.497 11363 691.497H11150.6C11056.1 691.497 11008.9 738.706 11008.9 833.123V1309.14C11008.9 1403.56 11056.1 1450.77 11150.6 1450.77H11272.5C11335.5 1450.77 11378.7 1466.5 11402.3 1497.98C11423.3 1529.45 11433.8 1579.28 11433.8 1647.47V3205.35C11433.8 3273.54 11423.3 3323.38 11402.3 3354.85C11378.7 3386.32 11335.5 3402.06 11272.5 3402.06H11150.6C11056.1 3402.06 11008.9 3449.26 11008.9 3543.68V4011.83C11008.9 4106.25 11056.1 4153.46 11150.6 4153.46Z" fill="#34CD3C"/>
<path d="M2716.73 4115.74H2487.18C2450.45 4115.74 2432.09 4097.37 2432.09 4060.65V3068.97C2432.09 3032.25 2450.45 3013.88 2487.18 3013.88H2646.34C2683.07 3013.88 2713.16 3027.66 2736.63 3055.2L3033.52 3394.94V3068.97C3033.52 3032.25 3051.88 3013.88 3088.61 3013.88H3318.16C3354.89 3013.88 3373.26 3032.25 3373.26 3068.97V4060.65C3373.26 4097.37 3354.89 4115.74 3318.16 4115.74H3088.61C3051.88 4115.74 3033.52 4097.37 3033.52 4060.65V3872.41L2771.83 3555.63V4060.65C2771.83 4097.37 2753.46 4115.74 2716.73 4115.74ZM4349.52 4115.74H3639.43C3602.7 4115.74 3584.34 4097.37 3584.34 4060.65V3068.97C3584.34 3032.25 3602.7 3013.88 3639.43 3013.88H4349.52C4386.25 3013.88 4404.61 3032.25 4404.61 3068.97V3248.03C4404.61 3284.76 4386.25 3303.12 4349.52 3303.12H3927.14V3420.96H4225.56C4262.29 3420.96 4280.65 3439.32 4280.65 3476.05V3639.8C4280.65 3676.53 4262.29 3694.89 4225.56 3694.89H3927.14V3826.5H4349.52C4386.25 3826.5 4404.61 3844.87 4404.61 3881.59V4060.65C4404.61 4097.37 4386.25 4115.74 4349.52 4115.74ZM5105.97 4115.74H4858.05C4821.32 4115.74 4802.96 4097.37 4802.96 4060.65V3309.24H4577.99C4541.27 3309.24 4522.9 3290.88 4522.9 3254.15V3068.97C4522.9 3032.25 4541.27 3013.88 4577.99 3013.88H5386.02C5422.75 3013.88 5441.12 3032.25 5441.12 3068.97V3254.15C5441.12 3290.88 5422.75 3309.24 5386.02 3309.24H5161.06V4060.65C5161.06 4097.37 5142.7 4115.74 5105.97 4115.74ZM6381.14 3013.88H6609.16C6645.89 3013.88 6664.25 3032.25 6664.25 3068.97V3662.75C6664.25 3695.4 6663.23 3726.01 6661.19 3754.57C6659.15 3782.12 6650.99 3814.77 6636.71 3852.52L6560.19 4060.65C6555.09 4075.95 6547.44 4089.21 6537.24 4100.44C6528.05 4110.64 6515.3 4115.74 6498.98 4115.74H6295.44C6279.11 4115.74 6264.32 4112.17 6251.06 4105.03C6238.82 4097.89 6230.14 4086.15 6225.04 4069.83L6154.65 3820.38C6149.54 3803.04 6140.36 3794.36 6127.1 3794.36H6113.33C6100.06 3794.36 6090.88 3803.04 6085.78 3820.38L6013.85 4069.83C6004.67 4100.44 5983.25 4115.74 5949.58 4115.74H5747.57C5731.25 4115.74 5716.96 4110.64 5704.72 4100.44C5693.5 4090.23 5685.34 4076.97 5680.23 4060.65L5603.72 3849.46C5590.45 3811.71 5582.29 3779.06 5579.23 3751.51C5577.19 3722.95 5576.17 3692.34 5576.17 3659.69V3068.97C5576.17 3032.25 5594.53 3013.88 5631.26 3013.88H5866.94C5903.67 3013.88 5922.03 3032.25 5922.03 3068.97V3632.15L6010.79 3439.32C6018.95 3421.98 6029.67 3409.73 6042.93 3402.59C6056.19 3395.45 6072.52 3391.88 6091.9 3391.88H6156.18C6176.58 3391.88 6192.9 3395.45 6205.15 3402.59C6218.41 3409.73 6229.12 3421.98 6237.29 3439.32L6326.05 3632.15V3068.97C6326.05 3032.25 6344.41 3013.88 6381.14 3013.88ZM7795.27 3826.5C7795.27 3873.43 7788.13 3916.28 7773.85 3955.05C7760.58 3992.8 7736.61 4025.45 7701.92 4052.99C7667.23 4080.54 7618.77 4101.46 7556.54 4115.74C7495.32 4131.04 7416.76 4138.69 7320.86 4138.69C7224.96 4138.69 7145.89 4131.04 7083.66 4115.74C7022.44 4101.46 6974.49 4080.54 6939.8 4052.99C6905.11 4025.45 6880.63 3992.8 6866.35 3955.05C6852.06 3916.28 6844.92 3873.43 6844.92 3826.5V3304.65C6844.92 3257.72 6852.06 3215.38 6866.35 3177.63C6880.63 3138.86 6905.11 3105.7 6939.8 3078.16C6974.49 3050.61 7022.44 3029.19 7083.66 3013.88C7145.89 2998.58 7224.96 2990.93 7320.86 2990.93C7416.76 2990.93 7495.32 2998.58 7556.54 3013.88C7618.77 3029.19 7667.23 3050.61 7701.92 3078.16C7736.61 3105.7 7760.58 3138.86 7773.85 3177.63C7788.13 3215.38 7795.27 3257.72 7795.27 3304.65V3826.5ZM7192.31 3771.41C7192.31 3791.81 7199.96 3809.16 7215.27 3823.44C7230.57 3836.7 7265.77 3843.34 7320.86 3843.34C7376.97 3843.34 7412.17 3836.7 7426.46 3823.44C7441.76 3809.16 7449.41 3791.81 7449.41 3771.41V3359.74C7449.41 3339.34 7441.76 3322.5 7426.46 3309.24C7412.17 3295.98 7376.97 3289.35 7320.86 3289.35C7265.77 3289.35 7230.57 3295.98 7215.27 3309.24C7199.96 3322.5 7192.31 3339.34 7192.31 3359.74V3771.41ZM8280.86 4115.74H8045.19C8008.46 4115.74 7990.09 4097.37 7990.09 4060.65V3068.97C7990.09 3032.25 8008.46 3013.88 8045.19 3013.88H8554.8C8631.31 3013.88 8691.51 3024.59 8735.38 3046.02C8779.25 3067.44 8810.37 3097.54 8828.73 3136.31C8847.09 3174.06 8856.28 3218.44 8856.28 3269.45V3339.85C8856.28 3382.7 8850.16 3418.92 8837.91 3448.5C8825.67 3478.09 8803.22 3500.03 8770.58 3514.31C8826.69 3520.43 8871.58 3542.88 8905.25 3581.64C8938.92 3620.41 8955.75 3671.94 8955.75 3736.21V4060.65C8955.75 4097.37 8937.39 4115.74 8900.66 4115.74H8663.45C8626.72 4115.74 8608.36 4097.37 8608.36 4060.65V3826.5C8608.36 3803.04 8603.77 3786.2 8594.59 3776C8586.42 3765.8 8571.63 3760.7 8550.21 3760.7H8335.96V4060.65C8335.96 4097.37 8317.59 4115.74 8280.86 4115.74ZM8335.96 3289.35V3485.23H8450.73C8477.26 3485.23 8495.11 3478.6 8504.29 3465.34C8513.48 3451.05 8518.07 3433.71 8518.07 3413.31V3361.27C8518.07 3340.87 8513.48 3324.03 8504.29 3310.77C8495.11 3296.49 8477.26 3289.35 8450.73 3289.35H8335.96ZM9419.7 4115.74H9182.49C9145.77 4115.74 9127.4 4097.37 9127.4 4060.65V3068.97C9127.4 3032.25 9145.77 3013.88 9182.49 3013.88H9419.7C9456.43 3013.88 9474.79 3032.25 9474.79 3068.97V3420.96H9536.01L9693.63 3064.38C9707.92 3030.72 9733.42 3013.88 9770.15 3013.88H10005.8C10042.6 3013.88 10053.8 3030.72 10039.5 3064.38L9883.4 3420.96C9940.53 3424.02 9985.93 3444.42 10019.6 3482.17C10054.3 3518.9 10071.6 3567.87 10071.6 3629.09V4060.65C10071.6 4097.37 10053.3 4115.74 10016.5 4115.74H9780.86C9744.14 4115.74 9725.77 4097.37 9725.77 4060.65V3762.23C9725.77 3727.54 9709.45 3710.19 9676.8 3710.19H9474.79V4060.65C9474.79 4097.37 9456.43 4115.74 9419.7 4115.74Z" fill="white"/>
<path d="M10419.9 1430.25H10302C10265.3 1430.25 10246.9 1411.88 10246.9 1375.15V1313.94C10246.9 1277.21 10265.3 1258.85 10302 1258.85H10407.6C10435.2 1258.85 10449 1244.56 10449 1216V1193.04H10282.1C10245.4 1193.04 10227 1174.68 10227 1137.95V911.456C10227 874.728 10245.4 856.363 10282.1 856.363H10591.3C10628 856.363 10646.4 874.728 10646.4 911.456V1199.16C10646.4 1276.7 10626 1334.86 10585.2 1373.62C10544.3 1411.37 10489.2 1430.25 10419.9 1430.25Z" fill="white"/>
<path d="M12696.1 4203.47H12578.3C12541.6 4203.47 12523.2 4185.1 12523.2 4148.37V4087.16C12523.2 4050.43 12541.6 4032.07 12578.3 4032.07H12683.9C12711.4 4032.07 12725.2 4017.78 12725.2 3989.22V3966.26H12558.4C12521.7 3966.26 12503.3 3947.9 12503.3 3911.17V3684.68C12503.3 3647.95 12521.7 3629.58 12558.4 3629.58H12867.5C12904.3 3629.58 12922.6 3647.95 12922.6 3684.68V3972.38C12922.6 4049.92 12902.2 4107.56 12861.4 4145.31C12820.6 4184.08 12765.5 4203.47 12696.1 4203.47ZM12867.5 3507.15H12558.4C12521.7 3507.15 12503.3 3488.79 12503.3 3452.06V3141.4C12503.3 3104.67 12521.7 3086.31 12558.4 3086.31H12867.5C12904.3 3086.31 12922.6 3104.67 12922.6 3141.4V3452.06C12922.6 3488.79 12904.3 3507.15 12867.5 3507.15Z" fill="white"/>
<path d="M2149.91 1430.25H2267.75C2304.47 1430.25 2322.84 1411.88 2322.84 1375.15V1313.94C2322.84 1277.21 2304.47 1258.85 2267.75 1258.85H2162.15C2134.6 1258.85 2120.83 1244.56 2120.83 1216V1193.04H2287.64C2324.37 1193.04 2342.73 1174.68 2342.73 1137.95V911.456C2342.73 874.728 2324.37 856.363 2287.64 856.363H1978.51C1941.78 856.363 1923.41 874.728 1923.41 911.456V1199.16C1923.41 1276.7 1943.82 1334.86 1984.63 1373.62C2025.44 1411.37 2080.53 1430.25 2149.91 1430.25Z" fill="white"/>
<rect x="1913" y="8.36872" width="1834.65" height="449.359" rx="126.711" fill="#1F1F1F"/>
<rect x="1913" y="8.36872" width="1834.65" height="449.359" rx="126.711" stroke="#1A1A1A" stroke-width="16.7374"/>
<path d="M2236.32 233.334C2236.32 219.556 2239.49 207.196 2245.84 196.255C2252.32 185.313 2261.04 176.803 2271.98 170.725C2283.05 164.511 2295.14 161.404 2308.25 161.404C2323.24 161.404 2336.55 165.119 2348.16 172.548C2359.92 179.843 2368.43 190.244 2373.69 203.752H2345.93C2342.29 196.322 2337.22 190.784 2330.74 187.137C2324.25 183.49 2316.76 181.666 2308.25 181.666C2298.93 181.666 2290.62 183.76 2283.33 187.947C2276.03 192.135 2270.29 198.146 2266.1 205.981C2262.05 213.815 2260.02 222.933 2260.02 233.334C2260.02 243.736 2262.05 252.853 2266.1 260.688C2270.29 268.523 2276.03 274.601 2283.33 278.924C2290.62 283.111 2298.93 285.205 2308.25 285.205C2316.76 285.205 2324.25 283.382 2330.74 279.734C2337.22 276.087 2342.29 270.549 2345.93 263.12H2373.69C2368.43 276.628 2359.92 287.029 2348.16 294.323C2336.55 301.617 2323.24 305.265 2308.25 305.265C2295.01 305.265 2282.92 302.225 2271.98 296.147C2261.04 289.933 2252.32 281.355 2245.84 270.414C2239.49 259.472 2236.32 247.113 2236.32 233.334ZM2449.16 305.872C2438.62 305.872 2429.1 303.509 2420.59 298.781C2412.08 293.918 2405.39 287.164 2400.53 278.519C2395.67 269.738 2393.23 259.607 2393.23 248.126C2393.23 236.779 2395.73 226.715 2400.73 217.935C2405.73 209.155 2412.55 202.401 2421.2 197.673C2429.84 192.945 2439.5 190.582 2450.17 190.582C2460.84 190.582 2470.5 192.945 2479.14 197.673C2487.79 202.401 2494.61 209.155 2499.61 217.935C2504.61 226.715 2507.11 236.779 2507.11 248.126C2507.11 259.472 2504.54 269.536 2499.41 278.316C2494.27 287.096 2487.25 293.918 2478.33 298.781C2469.55 303.509 2459.83 305.872 2449.16 305.872ZM2449.16 285.813C2455.1 285.813 2460.64 284.395 2465.77 281.558C2471.04 278.721 2475.3 274.466 2478.54 268.793C2481.78 263.12 2483.4 256.23 2483.4 248.126C2483.4 240.021 2481.85 233.199 2478.74 227.661C2475.63 221.988 2471.51 217.733 2466.38 214.896C2461.25 212.059 2455.71 210.641 2449.76 210.641C2443.82 210.641 2438.28 212.059 2433.15 214.896C2428.15 217.733 2424.17 221.988 2421.2 227.661C2418.22 233.199 2416.74 240.021 2416.74 248.126C2416.74 260.148 2419.78 269.468 2425.86 276.087C2432.07 282.571 2439.84 285.813 2449.16 285.813ZM2586.27 190.582C2595.05 190.582 2602.88 192.405 2609.77 196.052C2616.8 199.699 2622.27 205.103 2626.19 212.262C2630.1 219.421 2632.06 228.066 2632.06 238.197V304.049H2609.17V241.642C2609.17 231.646 2606.67 224.014 2601.67 218.746C2596.67 213.343 2589.85 210.641 2581.2 210.641C2572.56 210.641 2565.67 213.343 2560.54 218.746C2555.54 224.014 2553.04 231.646 2553.04 241.642V304.049H2529.94V192.405H2553.04V205.17C2556.82 200.577 2561.62 196.998 2567.43 194.431C2573.37 191.865 2579.65 190.582 2586.27 190.582ZM2702.05 305.872C2693.27 305.872 2685.37 304.319 2678.34 301.212C2671.45 297.97 2665.98 293.648 2661.93 288.244C2657.88 282.706 2655.72 276.56 2655.45 269.806H2679.36C2679.76 274.534 2681.99 278.519 2686.04 281.761C2690.23 284.867 2695.43 286.421 2701.64 286.421C2708.13 286.421 2713.13 285.205 2716.64 282.774C2720.28 280.207 2722.11 276.965 2722.11 273.048C2722.11 268.86 2720.08 265.754 2716.03 263.727C2712.11 261.701 2705.83 259.472 2697.19 257.041C2688.81 254.745 2681.99 252.516 2676.72 250.354C2671.45 248.193 2666.86 244.884 2662.94 240.426C2659.16 235.968 2657.27 230.092 2657.27 222.798C2657.27 216.855 2659.03 211.451 2662.54 206.589C2666.05 201.591 2671.05 197.673 2677.53 194.837C2684.15 192 2691.72 190.582 2700.23 190.582C2712.92 190.582 2723.12 193.823 2730.82 200.307C2738.66 206.656 2742.84 215.369 2743.38 226.445H2720.28C2719.88 221.447 2717.85 217.462 2714.21 214.491C2710.56 211.519 2705.63 210.033 2699.42 210.033C2693.34 210.033 2688.68 211.181 2685.43 213.478C2682.19 215.774 2680.57 218.813 2680.57 222.596C2680.57 225.567 2681.65 228.066 2683.81 230.092C2685.97 232.119 2688.61 233.74 2691.72 234.955C2694.82 236.036 2699.42 237.454 2705.49 239.21C2713.6 241.372 2720.22 243.6 2725.35 245.897C2730.62 248.058 2735.14 251.3 2738.93 255.623C2742.71 259.945 2744.67 265.686 2744.8 272.845C2744.8 279.194 2743.05 284.867 2739.53 289.865C2736.02 294.863 2731.02 298.781 2724.54 301.617C2718.19 304.454 2710.69 305.872 2702.05 305.872ZM2818.19 305.872C2807.65 305.872 2798.13 303.509 2789.62 298.781C2781.11 293.918 2774.42 287.164 2769.56 278.519C2764.7 269.738 2762.26 259.607 2762.26 248.126C2762.26 236.779 2764.76 226.715 2769.76 217.935C2774.76 209.155 2781.58 202.401 2790.23 197.673C2798.87 192.945 2808.53 190.582 2819.2 190.582C2829.87 190.582 2839.53 192.945 2848.17 197.673C2856.82 202.401 2863.64 209.155 2868.64 217.935C2873.64 226.715 2876.14 236.779 2876.14 248.126C2876.14 259.472 2873.57 269.536 2868.44 278.316C2863.3 287.096 2856.28 293.918 2847.36 298.781C2838.58 303.509 2828.86 305.872 2818.19 305.872ZM2818.19 285.813C2824.13 285.813 2829.67 284.395 2834.8 281.558C2840.07 278.721 2844.32 274.466 2847.57 268.793C2850.81 263.12 2852.43 256.23 2852.43 248.126C2852.43 240.021 2850.88 233.199 2847.77 227.661C2844.66 221.988 2840.54 217.733 2835.41 214.896C2830.28 212.059 2824.74 210.641 2818.79 210.641C2812.85 210.641 2807.31 212.059 2802.18 214.896C2797.18 217.733 2793.2 221.988 2790.23 227.661C2787.25 233.199 2785.77 240.021 2785.77 248.126C2785.77 260.148 2788.81 269.468 2794.89 276.087C2801.1 282.571 2808.87 285.813 2818.19 285.813ZM2922.07 154.11V304.049H2898.97V154.11H2922.07ZM3054.72 245.492C3054.72 249.679 3054.45 253.461 3053.91 256.838H2968.61C2969.28 265.754 2972.59 272.913 2978.53 278.316C2984.48 283.719 2991.77 286.421 3000.42 286.421C3012.84 286.421 3021.62 281.22 3026.76 270.819H3051.68C3048.3 281.085 3042.16 289.528 3033.24 296.147C3024.46 302.63 3013.52 305.872 3000.42 305.872C2989.75 305.872 2980.15 303.509 2971.64 298.781C2963.27 293.918 2956.65 287.164 2951.79 278.519C2947.06 269.738 2944.7 259.607 2944.7 248.126C2944.7 236.644 2946.99 226.58 2951.59 217.935C2956.31 209.155 2962.86 202.401 2971.24 197.673C2979.75 192.945 2989.48 190.582 3000.42 190.582C3010.95 190.582 3020.34 192.878 3028.58 197.471C3036.82 202.063 3043.24 208.547 3047.83 216.922C3052.42 225.162 3054.72 234.685 3054.72 245.492ZM3030.61 238.197C3030.47 229.687 3027.43 222.866 3021.49 217.733C3015.55 212.6 3008.18 210.033 2999.4 210.033C2991.43 210.033 2984.61 212.6 2978.94 217.733C2973.27 222.731 2969.89 229.552 2968.81 238.197H3030.61ZM3086.77 305.467C3082.58 305.467 3079.07 304.049 3076.23 301.212C3073.4 298.375 3071.98 294.863 3071.98 290.676C3071.98 286.488 3073.4 282.976 3076.23 280.14C3079.07 277.303 3082.58 275.885 3086.77 275.885C3090.82 275.885 3094.27 277.303 3097.1 280.14C3099.94 282.976 3101.36 286.488 3101.36 290.676C3101.36 294.863 3099.94 298.375 3097.1 301.212C3094.27 304.049 3090.82 305.467 3086.77 305.467ZM3149.42 154.11V304.049H3126.32V154.11H3149.42ZM3228.18 305.872C3217.64 305.872 3208.12 303.509 3199.61 298.781C3191.1 293.918 3184.41 287.164 3179.55 278.519C3174.68 269.738 3172.25 259.607 3172.25 248.126C3172.25 236.779 3174.75 226.715 3179.75 217.935C3184.75 209.155 3191.57 202.401 3200.21 197.673C3208.86 192.945 3218.52 190.582 3229.19 190.582C3239.86 190.582 3249.52 192.945 3258.16 197.673C3266.81 202.401 3273.63 209.155 3278.63 217.935C3283.63 226.715 3286.13 236.779 3286.13 248.126C3286.13 259.472 3283.56 269.536 3278.43 278.316C3273.29 287.096 3266.27 293.918 3257.35 298.781C3248.57 303.509 3238.85 305.872 3228.18 305.872ZM3228.18 285.813C3234.12 285.813 3239.66 284.395 3244.79 281.558C3250.06 278.721 3254.31 274.466 3257.56 268.793C3260.8 263.12 3262.42 256.23 3262.42 248.126C3262.42 240.021 3260.87 233.199 3257.76 227.661C3254.65 221.988 3250.53 217.733 3245.4 214.896C3240.27 212.059 3234.73 210.641 3228.78 210.641C3222.84 210.641 3217.3 212.059 3212.17 214.896C3207.17 217.733 3203.19 221.988 3200.21 227.661C3197.24 233.199 3195.76 240.021 3195.76 248.126C3195.76 260.148 3198.8 269.468 3204.87 276.087C3211.09 282.571 3218.86 285.813 3228.18 285.813ZM3353.94 190.582C3362.59 190.582 3370.22 192.338 3376.84 195.85C3383.59 199.227 3388.86 203.482 3392.64 208.615V192.405H3415.94V305.872C3415.94 316.138 3413.78 325.256 3409.46 333.226C3405.14 341.331 3398.86 347.68 3390.62 352.272C3382.51 356.865 3372.79 359.162 3361.44 359.162C3346.31 359.162 3333.75 355.582 3323.75 348.423C3313.76 341.398 3308.08 331.808 3306.73 319.651H3329.63C3331.38 325.459 3335.1 330.119 3340.77 333.631C3346.58 337.279 3353.47 339.102 3361.44 339.102C3370.76 339.102 3378.26 336.265 3383.93 330.592C3389.74 324.919 3392.64 316.679 3392.64 305.872V287.231C3388.72 292.499 3383.39 296.957 3376.63 300.604C3370.02 304.116 3362.45 305.872 3353.94 305.872C3344.22 305.872 3335.3 303.441 3327.2 298.578C3319.23 293.58 3312.88 286.691 3308.15 277.911C3303.56 268.996 3301.26 258.932 3301.26 247.72C3301.26 236.509 3303.56 226.58 3308.15 217.935C3312.88 209.29 3319.23 202.604 3327.2 197.876C3335.3 193.013 3344.22 190.582 3353.94 190.582ZM3392.64 248.126C3392.64 240.426 3391.02 233.74 3387.78 228.066C3384.67 222.393 3380.55 218.07 3375.42 215.099C3370.29 212.127 3364.75 210.641 3358.8 210.641C3352.86 210.641 3347.32 212.127 3342.19 215.099C3337.06 217.935 3332.87 222.19 3329.63 227.864C3326.52 233.402 3324.97 240.021 3324.97 247.72C3324.97 255.42 3326.52 262.174 3329.63 267.982C3332.87 273.791 3337.06 278.249 3342.19 281.355C3347.46 284.327 3353 285.813 3358.8 285.813C3364.75 285.813 3370.29 284.327 3375.42 281.355C3380.55 278.384 3384.67 274.061 3387.78 268.388C3391.02 262.579 3392.64 255.825 3392.64 248.126Z" fill="white"/>
<rect x="283.668" y="4579.21" width="12062.7" height="40.524" fill="#34CD3C"/>
</svg>
