<svg width="708" height="442" viewBox="0 0 708 442" fill="none" xmlns="http://www.w3.org/2000/svg">
<path d="M650.913 275.32C636.563 279.493 622.053 281.58 607.381 281.58C585.293 281.58 568.686 276.925 557.562 267.455C554.982 265.369 552.725 262.801 550.79 260.233C550.145 262.801 549.339 265.208 548.533 267.616C543.051 284.629 534.99 299.556 524.349 312.396C531.443 317.051 539.182 320.903 547.565 323.792C563.043 329.249 581.423 331.977 602.544 331.977C610.444 331.977 618.345 331.656 626.406 330.854C634.467 330.051 643.335 328.928 651.235 327.323C666.552 324.273 682.997 319.779 697.507 313.68V255.418C691.058 260.393 680.417 264.406 673.001 267.616C665.584 270.826 657.523 273.394 650.913 275.32Z" fill="white"/>
<path d="M699.281 148.202C694.444 132.954 686.544 119.793 676.225 108.879C665.907 97.9647 653.492 89.779 639.304 84.643C625.116 79.5069 609.638 76.9388 592.548 76.9388C580.295 76.9388 574.974 78.2229 558.852 80.7909V137.93C568.525 130.065 578.36 126.053 592.387 126.053C600.448 126.053 607.542 127.176 613.669 129.423C619.796 131.67 624.794 134.88 628.663 138.893C636.886 147.399 641.561 160.079 641.884 177.092L558.852 177.253V229.737H707.181V199.081C707.181 180.463 704.118 163.45 699.281 148.202Z" fill="white"/>
<path d="M541.117 196.192V0.218628H476.626V87.6925C476.626 87.0505 473.401 86.569 472.273 85.927C458.407 79.9884 442.284 76.9389 424.388 76.9389C412.457 76.9389 401.171 78.3834 390.853 81.1119C394.4 89.4581 396.012 101.014 396.012 115.62V139.053C402.461 137.127 400.526 135.362 402.945 133.757C408.749 130.226 415.843 128.46 423.904 128.46C431.321 128.46 438.092 130.065 444.219 133.275C450.346 136.485 455.666 141.461 460.181 148.523C468.887 162.005 473.24 180.463 473.24 204.217C473.24 228.132 468.887 246.911 460.181 260.393C451.474 273.715 439.382 280.296 424.065 280.296C412.941 280.296 404.073 276.765 396.012 269.702V294.741C396.012 308.544 394.4 319.619 391.175 327.965C401.171 330.533 412.135 331.977 424.227 331.977C441.962 331.977 457.762 328.928 471.628 322.829C485.493 316.73 497.263 308.384 506.775 297.469C516.772 286.074 524.349 272.592 529.347 256.862C534.507 241.294 539.182 223.799 539.182 204.378C539.182 201.649 541.117 198.921 541.117 196.192Z" fill="white"/>
<path d="M149.333 294.741V280.296C139.659 280.938 137.402 281.419 132.404 281.419C111.444 281.419 94.354 274.839 83.2293 261.838C72.1045 248.677 65.8167 230.058 65.8167 205.983C65.8167 181.908 71.1372 163.129 82.2619 149.807C87.5824 143.387 94.0315 138.572 101.77 135.201C109.509 131.831 121.279 130.065 132.081 130.065C137.079 130.065 139.498 130.386 149.171 131.189V115.78C149.171 100.854 148.527 89.1371 152.235 80.6304C142.722 78.8649 131.759 78.0624 121.602 78.0624C84.3579 78.0624 54.3695 89.2976 33.0874 111.928C11.8053 134.72 0.841797 166.178 0.841797 205.983C0.841797 245.788 11.3216 276.925 32.4425 299.556C53.5633 322.026 83.068 333.422 121.279 333.422C128.857 333.422 135.628 332.94 141.916 332.298C144.818 331.977 149.978 331.496 152.88 331.014C148.849 322.187 149.333 310.149 149.333 294.741Z" fill="white"/>
<path d="M402.622 194.427C395.851 194.427 390.369 192.822 386.177 191.377C381.985 190.093 378.599 187.525 376.342 185.118C373.924 182.55 373.601 178.858 372.312 174.364C371.022 169.87 371.828 163.771 371.828 156.548V127.658C371.828 107.916 366.669 94.1127 359.091 87.5321C351.674 80.9514 335.229 77.2599 312.657 77.2599H296.051V79.0254V103.743V135.362C302.5 138.572 303.145 142.905 306.853 148.523C315.559 162.005 319.106 180.463 319.106 204.217C319.106 228.132 316.043 246.911 307.337 260.393C303.79 265.85 302.5 270.184 296.051 273.555V306.779V330.051V332.62H312.818C335.068 332.62 351.513 329.249 359.252 322.668C366.669 316.088 371.989 302.766 371.989 283.024V254.134C371.989 240.652 372.957 231.503 377.955 226.367C382.791 221.231 390.047 218.823 402.784 218.823H418.745V194.748H402.622V194.427Z" fill="#34CD3C"/>
<path d="M135.467 218.502C142.239 218.502 147.72 218.342 151.912 219.786C156.104 221.07 159.49 222.675 161.747 225.243C164.166 227.811 167.229 231.021 168.519 235.515C169.809 240.01 171.743 245.627 171.743 252.85V281.74C171.743 301.482 174.162 315.446 181.739 322.026C189.156 328.607 202.86 332.459 225.271 332.459H249.294V330.372V305.655V274.036C244.457 270.826 238.653 266.492 234.945 260.875C226.238 247.393 220.918 228.935 220.918 205.18C220.918 181.266 226.561 162.487 235.267 149.005C238.814 143.547 244.296 139.214 249.133 135.843V102.619V79.3464V77.2599H225.271C203.022 77.2599 189.317 80.4699 181.739 87.0505C174.323 93.6312 171.743 106.792 171.743 126.534V155.425C171.743 168.907 168.035 179.821 163.037 184.957C158.2 190.093 148.043 194.427 135.467 194.427H125.148V218.502H135.467Z" fill="#34CD3C"/>
<path d="M141.155 440.898L115.653 407.539V440.898H99.1904V380.948H114.524L140.025 414.468V380.948H156.327V441.059H141.155V440.898Z" fill="white"/>
<path d="M192.964 394.646V403.993H221.371V417.691H192.964V427.199H225.083V440.898H175.049V380.948H224.276V394.646H192.964Z" fill="white"/>
<path d="M273.02 395.13V440.898H255.104V395.13H237.673V380.948H290.613V395.13H273.02Z" fill="white"/>
<path d="M356.788 440.898L347.104 402.543L337.258 440.898H318.858L299.49 380.948H318.536L328.865 422.526L338.872 381.11L356.304 380.948L366.633 422.526L376.64 380.948H394.879L375.188 441.059H356.788V440.898Z" fill="white"/>
<path d="M437.329 441.702C428.196 441.702 419.862 438.598 413.863 432.961C407.865 427.326 404.562 419.5 404.562 410.925C404.562 393.274 418.343 380.463 437.329 380.463L437.667 380.462C446.702 380.462 454.952 383.545 460.895 389.144C466.824 394.73 470.09 402.465 470.09 410.925C470.09 419.5 466.787 427.326 460.79 432.961C454.792 438.598 446.46 441.702 437.329 441.702ZM437.486 395.293C429.25 395.293 422.799 402.159 422.799 410.925C422.799 419.632 429.388 426.715 437.486 426.715C445.451 426.715 451.691 419.78 451.691 410.925C451.691 402.013 445.584 395.293 437.486 395.293Z" fill="white"/>
<path d="M503.341 441.064H503.335L485.425 441.058V380.948H513.346C529.452 380.948 538.69 388.701 538.69 402.219C538.69 411.041 535.172 417.673 528.517 421.4L540.779 441.05L520.611 441.058L512.7 424.78H503.341V441.058V441.064ZM503.178 394.486V410.922H513.346V411.085C518.762 411.079 521.74 408.104 521.74 402.702C521.74 397.481 518.68 394.486 513.346 394.486H503.178Z" fill="white"/>
<path d="M580.813 418.981L574.034 426.555V440.898H556.118V380.948H574.034V404.155L594.209 380.948H614.868L593.079 405.444L616.321 441.059H595.016L580.813 418.981Z" fill="white"/>
</svg>
